<svg width="153" height="20" viewBox="0 0 153 20" fill="none" xmlns="http://www.w3.org/2000/svg">
<path d="M1.16211 5.75947H8.63811V14.9995H7.15411V7.08947H2.64611V14.9995H1.16211V5.75947Z" fill="black"/>
<path d="M15.2625 15.1535C14.3758 15.1535 13.5592 14.9435 12.8125 14.5235C12.0752 14.1035 11.4918 13.5295 11.0625 12.8015C10.6332 12.0735 10.4185 11.2661 10.4185 10.3795C10.4185 9.4928 10.6332 8.68547 11.0625 7.95747C11.5012 7.22947 12.0892 6.65547 12.8265 6.23547C13.5638 5.81547 14.3758 5.60547 15.2625 5.60547C16.1398 5.60547 16.9518 5.81547 17.6985 6.23547C18.4452 6.65547 19.0332 7.22947 19.4625 7.95747C19.9012 8.68547 20.1205 9.4928 20.1205 10.3795C20.1205 11.2661 19.9012 12.0735 19.4625 12.8015C19.0332 13.5295 18.4452 14.1035 17.6985 14.5235C16.9518 14.9435 16.1398 15.1535 15.2625 15.1535ZM15.2765 13.7955C15.9018 13.7955 16.4665 13.6508 16.9705 13.3615C17.4745 13.0628 17.8712 12.6521 18.1605 12.1295C18.4498 11.6068 18.5945 11.0188 18.5945 10.3655C18.5945 9.7308 18.4498 9.15214 18.1605 8.62947C17.8712 8.1068 17.4745 7.7008 16.9705 7.41147C16.4665 7.1128 15.9018 6.96347 15.2765 6.96347C14.6418 6.96347 14.0725 7.1128 13.5685 7.41147C13.0645 7.7008 12.6678 8.1068 12.3785 8.62947C12.0985 9.1428 11.9585 9.72147 11.9585 10.3655C11.9585 11.0188 12.0985 11.6068 12.3785 12.1295C12.6678 12.6521 13.0645 13.0628 13.5685 13.3615C14.0725 13.6508 14.6418 13.7955 15.2765 13.7955Z" fill="black"/>
<path d="M25.0449 5.60547C25.9316 5.60547 26.7436 5.81547 27.4809 6.23547C28.2276 6.65547 28.8156 7.22947 29.2449 7.95747C29.6836 8.68547 29.9029 9.4928 29.9029 10.3795C29.9029 11.2661 29.6836 12.0735 29.2449 12.8015C28.8156 13.5295 28.2276 14.1035 27.4809 14.5235C26.7436 14.9435 25.9316 15.1535 25.0449 15.1535C24.1862 15.1535 23.4069 14.9621 22.7069 14.5795C22.0162 14.1968 21.4749 13.6788 21.0829 13.0255L22.2029 12.1995C22.9029 13.2635 23.8456 13.7955 25.0309 13.7955C25.5909 13.7955 26.1042 13.6788 26.5709 13.4455C27.0469 13.2028 27.4389 12.8668 27.7469 12.4375C28.0549 11.9988 28.2509 11.5041 28.3349 10.9535H24.3309V9.66547H28.3069C28.1576 8.8628 27.7796 8.21414 27.1729 7.71947C26.5756 7.21547 25.8616 6.96347 25.0309 6.96347C23.8456 6.96347 22.9029 7.49547 22.2029 8.55947L21.0829 7.73347C21.4936 7.08013 22.0442 6.56213 22.7349 6.17947C23.4256 5.7968 24.1956 5.60547 25.0449 5.60547Z" fill="black"/>
<path d="M33.629 7.08947H30.521V5.75947H38.235V7.08947H35.113V14.9995H33.629V7.08947Z" fill="black"/>
<path d="M38.5845 9.93147H42.0285V11.1775H38.5845V9.93147Z" fill="black"/>
<path d="M43.873 5.75947H49.585V7.08947H45.357V14.9995H43.873V5.75947Z" fill="black"/>
<path d="M51.0781 5.75947H54.4521C55.0681 5.75947 55.6141 5.8808 56.0901 6.12347C56.5661 6.3568 56.9348 6.68813 57.1961 7.11747C57.4575 7.5468 57.5881 8.0368 57.5881 8.58747C57.5881 9.13813 57.4575 9.62814 57.1961 10.0575C56.9348 10.4868 56.5661 10.8228 56.0901 11.0655C55.6141 11.3081 55.0681 11.4295 54.4521 11.4295H52.5621V14.9995H51.0781V5.75947ZM54.4241 10.1135C54.9468 10.1135 55.3481 9.97814 55.6281 9.70747C55.9175 9.42747 56.0621 9.0588 56.0621 8.60147C56.0621 8.14413 55.9175 7.77547 55.6281 7.49547C55.3481 7.21547 54.9468 7.07547 54.4241 7.07547H52.5621V10.1135H54.4241Z" fill="black"/>
<path d="M63.6631 13.4595H59.5051L58.8471 14.9995H57.2651L61.3391 5.60547H61.8431L65.9171 14.9995H64.3211L63.6631 13.4595ZM61.5911 8.36347L60.0371 12.1855H63.1311L61.5911 8.36347Z" fill="black"/>
<path d="M68.7047 5.75947L72.2887 10.0855L68.3687 14.9995H66.5347L70.5387 10.0855L66.8707 5.75947H68.7047ZM72.3307 5.75947H73.8147V14.9995H72.3307V5.75947ZM79.6247 14.9995H77.7907L73.8567 10.0855L77.4547 5.75947H79.2747L75.6207 10.0855L79.6247 14.9995Z" fill="black"/>
<path d="M89.3059 13.6695V16.9735H87.8219V14.9995H81.5919V16.9735H80.1079V13.6695H80.8359C81.2839 13.2681 81.6106 12.5401 81.8159 11.4855C82.0306 10.4308 82.1379 8.9608 82.1379 7.07547V5.75947H88.1299V13.6695H89.3059ZM82.4599 13.6695H86.6459V7.08947H83.5099C83.5006 10.3841 83.1506 12.5775 82.4599 13.6695Z" fill="black"/>
<path d="M96.3936 13.4595H92.2356L91.5776 14.9995H89.9956L94.0696 5.60547H94.5736L98.6476 14.9995H97.0516L96.3936 13.4595ZM94.3216 8.36347L92.7676 12.1855H95.8616L94.3216 8.36347Z" fill="black"/>
<path d="M100.119 5.75947H101.603V9.44147H106.251V5.75947H107.735V14.9995H106.251V10.7715H101.603V14.9995H100.119V5.75947Z" fill="black"/>
<path d="M117.8 5.60547V14.9995H116.316V8.54547L110.59 15.1535H110.072V5.75947H111.556V12.1995L117.282 5.60547H117.8Z" fill="black"/>
<path d="M120.121 5.75947H121.605V9.44147H126.253V5.75947H127.737V14.9995H126.253V10.7715H121.605V14.9995H120.121V5.75947Z" fill="black"/>
<path fill-rule="evenodd" clip-rule="evenodd" d="M145.5 5.375C145.102 5.375 144.721 5.53303 144.439 5.81434C144.158 6.09564 144 6.47718 144 6.875C144 7.42728 143.552 7.875 143 7.875C142.448 7.875 142 7.42728 142 6.875C142 5.94674 142.369 5.0565 143.025 4.40013C143.682 3.74375 144.572 3.375 145.5 3.375H150.5C150.931 3.375 151.344 3.5462 151.649 3.85095C151.954 4.1557 152.125 4.56902 152.125 5V15C152.125 15.431 151.954 15.8443 151.649 16.149C151.344 16.4538 150.931 16.625 150.5 16.625H145.5C145.102 16.625 144.721 16.783 144.439 17.0643C144.158 17.3456 144 17.7272 144 18.125C144 18.6773 143.552 19.125 143 19.125C142.448 19.125 142 18.6773 142 18.125C142 17.1967 142.369 16.3065 143.025 15.6501C143.682 14.9937 144.572 14.625 145.5 14.625H150.125V5.375H145.5Z" fill="black"/>
<path fill-rule="evenodd" clip-rule="evenodd" d="M134.351 3.85095C134.656 3.54621 135.069 3.375 135.5 3.375H140.5C141.428 3.375 142.318 3.74375 142.975 4.40013C143.631 5.0565 144 5.94674 144 6.875V18.125C144 18.6773 143.552 19.125 143 19.125C142.448 19.125 142 18.6773 142 18.125C142 17.7272 141.842 17.3456 141.561 17.0643C141.279 16.783 140.898 16.625 140.5 16.625H135.5C135.069 16.625 134.656 16.4538 134.351 16.149C134.046 15.8443 133.875 15.431 133.875 15V5C133.875 4.56902 134.046 4.1557 134.351 3.85095ZM142 14.9627V6.875C142 6.47717 141.842 6.09564 141.561 5.81434C141.279 5.53304 140.898 5.375 140.5 5.375H135.875V14.625H140.5C141.024 14.625 141.536 14.7424 142 14.9627Z" fill="black"/>
</svg>
