<svg width="22" height="22" viewBox="0 0 22 22" fill="none" xmlns="http://www.w3.org/2000/svg">
    <path d="M10.4035 3.841H11.5967C11.7027 3.841 11.7557 3.89403 11.7557 4.00009V18.0001C11.7557 18.1062 11.7027 18.1592 11.5967 18.1592H10.4035C10.2974 18.1592 10.2444 18.1062 10.2444 18.0001V4.00009C10.2444 3.89403 10.2974 3.841 10.4035 3.841Z" fill="#0F0E0E"/>
    <path d="M4.31827 10.2445H17.6819C17.788 10.2445 17.841 10.2975 17.841 10.4036V11.5968C17.841 11.7028 17.788 11.7559 17.6819 11.7559H4.31827C4.21221 11.7559 4.15918 11.7028 4.15918 11.5968V10.4036C4.15918 10.2975 4.21221 10.2445 4.31827 10.2445Z" fill="#0F0E0E"/>
</svg>
