<svg width="14" height="15" viewBox="0 0 14 15" fill="none" xmlns="http://www.w3.org/2000/svg">
<path d="M12.7422 8.59766C12.9883 8.1875 13.125 7.75 13.125 7.23047C13.125 6.02734 12.0859 4.90625 10.7734 4.90625H9.76172C9.89844 4.55078 10.0078 4.14062 10.0078 3.62109C10.0078 1.625 8.96875 0.75 7.41016 0.75C5.71484 0.75 5.82422 3.34766 5.44141 3.73047C4.8125 4.35938 4.07422 5.5625 3.55469 6H0.875C0.382812 6 0 6.41016 0 6.875V13.4375C0 13.9297 0.382812 14.3125 0.875 14.3125H2.625C3.00781 14.3125 3.36328 14.0391 3.44531 13.6836C4.67578 13.7109 5.52344 14.75 8.3125 14.75C8.53125 14.75 8.75 14.75 8.94141 14.75C11.0469 14.75 11.9766 13.6836 12.0039 12.1523C12.3867 11.6602 12.5781 10.9766 12.4961 10.3203C12.7695 9.82812 12.8516 9.22656 12.7422 8.59766ZM11.0469 10.0742C11.4023 10.6484 11.0742 11.4141 10.6641 11.6602C10.8828 12.9727 10.1719 13.4375 9.21484 13.4375H8.17578C6.23438 13.4375 4.94922 12.4258 3.5 12.4258V7.3125H3.77344C4.56641 7.3125 5.63281 5.39844 6.37109 4.66016C7.13672 3.89453 6.89062 2.58203 7.41016 2.0625C8.69531 2.0625 8.69531 2.96484 8.69531 3.62109C8.69531 4.6875 7.92969 5.17969 7.92969 6.21875H10.7734C11.3477 6.21875 11.7852 6.73828 11.8125 7.25781C11.8125 7.75 11.457 8.26953 11.1836 8.26953C11.5664 8.67969 11.6484 9.52734 11.0469 10.0742ZM2.40625 12.5625C2.40625 12.9453 2.10547 13.2188 1.75 13.2188C1.36719 13.2188 1.09375 12.9453 1.09375 12.5625C1.09375 12.207 1.36719 11.9062 1.75 11.9062C2.10547 11.9062 2.40625 12.207 2.40625 12.5625Z" fill="#BDBDBD"/>
</svg>
