<svg width="290" height="272" viewBox="0 0 290 272" fill="none" xmlns="http://www.w3.org/2000/svg">
    <line y1="30.5" x2="290" y2="30.5" stroke="#F1F1F1"/>
    <line y1="66.5" x2="290" y2="66.5" stroke="#F1F1F1"/>
    <line y1="102.5" x2="290" y2="102.5" stroke="#F1F1F1"/>
    <line y1="138.5" x2="290" y2="138.5" stroke="#F1F1F1"/>
    <line y1="174.5" x2="290" y2="174.5" stroke="#F1F1F1"/>
    <line y1="210.5" x2="290" y2="210.5" stroke="#F1F1F1"/>
    <line y1="246.5" x2="290" y2="246.5" stroke="#F1F1F1"/>
    <path d="M22.91 30V8.58H35.63V10.95H25.61V17.64H28.79C30.93 17.64 32.59 17.91 33.77 18.45C34.95 18.97 35.77 19.69 36.23 20.61C36.69 21.51 36.92 22.55 36.92 23.73C36.92 25.69 36.33 27.23 35.15 28.35C33.97 29.45 31.98 30 29.18 30H22.91ZM28.91 27.69C30.83 27.69 32.18 27.37 32.96 26.73C33.74 26.07 34.13 25.07 34.13 23.73C34.13 22.35 33.7 21.38 32.84 20.82C31.98 20.26 30.52 19.98 28.46 19.98H25.61V27.69H28.91ZM54.5141 30L51.9341 23.37H43.4441L40.8941 30H38.1641L46.5341 8.49H48.9641L57.3041 30H54.5141ZM48.7241 14.49C48.6641 14.33 48.5641 14.04 48.4241 13.62C48.2841 13.2 48.1441 12.77 48.0041 12.33C47.8841 11.87 47.7841 11.52 47.7041 11.28C47.5641 11.9 47.4041 12.51 47.2241 13.11C47.0441 13.69 46.8941 14.15 46.7741 14.49L44.3441 20.97H51.1241L48.7241 14.49ZM65.9042 8.58C68.7042 8.58 70.7442 9.13 72.0242 10.23C73.3042 11.33 73.9442 12.88 73.9442 14.88C73.9442 16.06 73.6742 17.17 73.1342 18.21C72.6142 19.23 71.7242 20.06 70.4642 20.7C69.2242 21.34 67.5342 21.66 65.3942 21.66H62.9342V30H60.2342V8.58H65.9042ZM65.6642 10.89H62.9342V19.35H65.0942C67.1342 19.35 68.6542 19.02 69.6542 18.36C70.6542 17.7 71.1542 16.58 71.1542 15C71.1542 13.62 70.7142 12.59 69.8342 11.91C68.9542 11.23 67.5642 10.89 65.6642 10.89ZM90.3441 30L87.7641 23.37H79.2741L76.7241 30H73.9941L82.3641 8.49H84.7941L93.1341 30H90.3441ZM84.5541 14.49C84.4941 14.33 84.3941 14.04 84.2541 13.62C84.1141 13.2 83.9741 12.77 83.8341 12.33C83.7141 11.87 83.6141 11.52 83.5341 11.28C83.3941 11.9 83.2341 12.51 83.0541 13.11C82.8741 13.69 82.7241 14.15 82.6041 14.49L80.1741 20.97H86.9541L84.5541 14.49ZM112.444 30H109.744V20.01H98.7643V30H96.0643V8.58H98.7643V17.64H109.744V8.58H112.444V30ZM133.931 30H130.691L121.001 19.14V30H118.301V8.58H121.001V18.96L130.451 8.58H133.511L124.211 18.99L133.931 30ZM136.876 8.58H139.396V20.34C139.396 21 139.386 21.74 139.366 22.56C139.346 23.38 139.316 24.13 139.276 24.81C139.256 25.49 139.226 25.99 139.186 26.31H139.306L151.096 8.58H154.096V30H151.576V18.36C151.576 17.62 151.586 16.83 151.606 15.99C151.646 15.15 151.686 14.38 151.726 13.68C151.766 12.98 151.796 12.48 151.816 12.18H151.696L139.876 30H136.876V8.58ZM176.253 30H173.553V20.01H162.573V30H159.873V8.58H162.573V17.64H173.553V8.58H176.253V30ZM184.869 27.3H182.139L181.749 35.37H183.639L184.869 27.3ZM22.91 66V44.58H35.63V46.95H25.61V53.64H28.79C30.93 53.64 32.59 53.91 33.77 54.45C34.95 54.97 35.77 55.69 36.23 56.61C36.69 57.51 36.92 58.55 36.92 59.73C36.92 61.69 36.33 63.23 35.15 64.35C33.97 65.45 31.98 66 29.18 66H22.91ZM28.91 63.69C30.83 63.69 32.18 63.37 32.96 62.73C33.74 62.07 34.13 61.07 34.13 59.73C34.13 58.35 33.7 57.38 32.84 56.82C31.98 56.26 30.52 55.98 28.46 55.98H25.61V63.69H28.91ZM50.337 59.91C49.697 61.33 49.047 62.52 48.387 63.48C47.747 64.42 46.987 65.13 46.107 65.61C45.227 66.07 44.107 66.3 42.747 66.3C42.187 66.3 41.657 66.26 41.157 66.18C40.677 66.1 40.237 65.99 39.837 65.85V63.18C40.237 63.36 40.667 63.51 41.127 63.63C41.587 63.73 42.067 63.78 42.567 63.78C43.687 63.78 44.567 63.54 45.207 63.06C45.867 62.58 46.477 61.73 47.037 60.51L38.787 44.58H41.757L47.727 56.37C47.827 56.57 47.947 56.83 48.087 57.15C48.227 57.45 48.347 57.74 48.447 58.02H48.567C48.647 57.8 48.747 57.54 48.867 57.24C48.987 56.92 49.087 56.66 49.167 56.46L54.327 44.58H57.177L50.337 59.91ZM73.0236 44.58V63.6H75.7536V71.64H73.1736V66H58.4436V71.64H55.8636V63.6H57.5136C58.2336 62.36 58.9136 60.97 59.5536 59.43C60.2136 57.89 60.7936 56.28 61.2936 54.6C61.7936 52.9 62.2036 51.2 62.5236 49.5C62.8436 47.8 63.0436 46.16 63.1236 44.58H73.0236ZM65.4936 47.01C65.4136 48.17 65.2136 49.48 64.8936 50.94C64.5936 52.4 64.2036 53.9 63.7236 55.44C63.2636 56.96 62.7436 58.43 62.1636 59.85C61.6036 61.27 61.0036 62.52 60.3636 63.6H70.3536V47.01H65.4936ZM79.3358 66V44.58H82.0358V53.64H86.0558C88.0558 53.64 89.6458 53.91 90.8258 54.45C92.0058 54.99 92.8558 55.72 93.3758 56.64C93.8958 57.56 94.1558 58.59 94.1558 59.73C94.1558 61.61 93.5158 63.13 92.2358 64.29C90.9558 65.43 89.0058 66 86.3858 66H79.3358ZM86.1158 63.69C89.6158 63.69 91.3658 62.37 91.3658 59.73C91.3658 58.35 90.8858 57.38 89.9258 56.82C88.9658 56.26 87.5658 55.98 85.7258 55.98H82.0358V63.69H86.1158ZM38.03 102H35.33V93.21C34.17 93.61 33.08 93.94 32.06 94.2C31.06 94.44 29.94 94.56 28.7 94.56C26.7 94.56 25.15 94.1 24.05 93.18C22.95 92.24 22.4 90.89 22.4 89.13V80.58H25.1V88.74C25.1 89.9 25.4 90.77 26 91.35C26.62 91.91 27.61 92.19 28.97 92.19C30.15 92.19 31.21 92.08 32.15 91.86C33.09 91.64 34.15 91.34 35.33 90.96V80.58H38.03V102ZM55.8273 102H43.8573V80.58H55.8273V82.95H46.5573V89.64H55.2873V91.98H46.5573V99.63H55.8273V102ZM75.9472 102H73.2472V82.95H66.4672C66.2872 84.43 66.0872 85.99 65.8672 87.63C65.6472 89.25 65.4272 90.8 65.2072 92.28C64.9872 93.76 64.7672 95.02 64.5472 96.06C64.2872 97.4 63.9672 98.54 63.5872 99.48C63.2072 100.42 62.6972 101.13 62.0572 101.61C61.4372 102.09 60.6172 102.33 59.5972 102.33C59.2572 102.33 58.9072 102.29 58.5472 102.21C58.2072 102.15 57.9072 102.07 57.6472 101.97V99.72C57.8672 99.82 58.1172 99.91 58.3972 99.99C58.6772 100.05 58.9772 100.08 59.2972 100.08C59.8972 100.08 60.3672 99.84 60.7072 99.36C61.0672 98.86 61.3472 98.25 61.5472 97.53C61.7472 96.79 61.9172 96.06 62.0572 95.34C62.2172 94.58 62.4072 93.47 62.6272 92.01C62.8672 90.53 63.1172 88.81 63.3772 86.85C63.6572 84.89 63.9372 82.8 64.2172 80.58H75.9472V102ZM100.457 91.26C100.457 93.48 100.077 95.42 99.3174 97.08C98.5774 98.72 97.4774 100 96.0174 100.92C94.5574 101.84 92.7474 102.3 90.5874 102.3C88.3674 102.3 86.5174 101.84 85.0374 100.92C83.5774 100 82.4874 98.71 81.7674 97.05C81.0474 95.39 80.6874 93.45 80.6874 91.23C80.6874 89.03 81.0474 87.11 81.7674 85.47C82.4874 83.83 83.5774 82.55 85.0374 81.63C86.5174 80.71 88.3774 80.25 90.6174 80.25C92.7574 80.25 94.5574 80.71 96.0174 81.63C97.4774 82.53 98.5774 83.81 99.3174 85.47C100.077 87.11 100.457 89.04 100.457 91.26ZM83.5374 91.26C83.5374 93.96 84.1074 96.09 85.2474 97.65C86.3874 99.19 88.1674 99.96 90.5874 99.96C93.0274 99.96 94.8074 99.19 95.9274 97.65C97.0474 96.09 97.6074 93.96 97.6074 91.26C97.6074 88.56 97.0474 86.45 95.9274 84.93C94.8074 83.39 93.0374 82.62 90.6174 82.62C88.1974 82.62 86.4074 83.39 85.2474 84.93C84.1074 86.45 83.5374 88.56 83.5374 91.26ZM111.325 80.58C114.005 80.58 116.025 80.98 117.385 81.78C118.765 82.56 119.455 83.93 119.455 85.89C119.455 87.15 119.105 88.2 118.405 89.04C117.705 89.86 116.695 90.39 115.375 90.63V90.78C116.275 90.92 117.085 91.18 117.805 91.56C118.545 91.94 119.125 92.48 119.545 93.18C119.965 93.88 120.175 94.79 120.175 95.91C120.175 97.85 119.505 99.35 118.165 100.41C116.845 101.47 115.035 102 112.735 102H105.205V80.58H111.325ZM111.865 89.7C113.705 89.7 114.965 89.41 115.645 88.83C116.325 88.23 116.665 87.35 116.665 86.19C116.665 85.01 116.245 84.17 115.405 83.67C114.585 83.15 113.265 82.89 111.445 82.89H107.905V89.7H111.865ZM107.905 91.95V99.72H112.225C114.125 99.72 115.445 99.35 116.185 98.61C116.925 97.87 117.295 96.9 117.295 95.7C117.295 94.58 116.905 93.68 116.125 93C115.365 92.3 113.995 91.95 112.015 91.95H107.905ZM136.687 102H124.717V80.58H136.687V82.95H127.417V89.64H136.147V91.98H127.417V99.63H136.687V102ZM157.017 102H153.777L144.087 91.14V102H141.387V80.58H144.087V90.96L153.537 80.58H156.597L147.297 90.99L157.017 102ZM178.036 91.26C178.036 93.48 177.656 95.42 176.896 97.08C176.156 98.72 175.056 100 173.596 100.92C172.136 101.84 170.326 102.3 168.166 102.3C165.946 102.3 164.096 101.84 162.616 100.92C161.156 100 160.066 98.71 159.346 97.05C158.626 95.39 158.266 93.45 158.266 91.23C158.266 89.03 158.626 87.11 159.346 85.47C160.066 83.83 161.156 82.55 162.616 81.63C164.096 80.71 165.956 80.25 168.196 80.25C170.336 80.25 172.136 80.71 173.596 81.63C175.056 82.53 176.156 83.81 176.896 85.47C177.656 87.11 178.036 89.04 178.036 91.26ZM161.116 91.26C161.116 93.96 161.686 96.09 162.826 97.65C163.966 99.19 165.746 99.96 168.166 99.96C170.606 99.96 172.386 99.19 173.506 97.65C174.626 96.09 175.186 93.96 175.186 91.26C175.186 88.56 174.626 86.45 173.506 84.93C172.386 83.39 170.616 82.62 168.196 82.62C165.776 82.62 163.986 83.39 162.826 84.93C161.686 86.45 161.116 88.56 161.116 91.26ZM192.233 102L185.183 83.22H185.063C185.123 83.84 185.173 84.68 185.213 85.74C185.253 86.78 185.273 87.87 185.273 89.01V102H182.783V80.58H186.773L193.373 98.13H193.493L200.213 80.58H204.173V102H201.503V88.83C201.503 87.79 201.523 86.76 201.563 85.74C201.623 84.72 201.673 83.89 201.713 83.25H201.593L194.453 102H192.233ZM213.03 82.2H210.24L210.69 95.73H212.61L213.03 82.2ZM211.65 98.55C210.63 98.55 209.76 99.33 209.76 100.44C209.76 101.55 210.63 102.33 211.65 102.33C212.7 102.33 213.54 101.55 213.54 100.44C213.54 99.33 212.7 98.55 211.65 98.55ZM22.94 116.58H25.46V128.34C25.46 129 25.45 129.74 25.43 130.56C25.41 131.38 25.38 132.13 25.34 132.81C25.32 133.49 25.29 133.99 25.25 134.31H25.37L37.16 116.58H40.16V138H37.64V126.36C37.64 125.62 37.65 124.83 37.67 123.99C37.71 123.15 37.75 122.38 37.79 121.68C37.83 120.98 37.86 120.48 37.88 120.18H37.76L25.94 138H22.94V116.58ZM35 152.58V154.98H25.61V174H22.91V152.58H35ZM44.3124 152.58C47.1124 152.58 49.1524 153.13 50.4324 154.23C51.7124 155.33 52.3524 156.88 52.3524 158.88C52.3524 160.06 52.0824 161.17 51.5424 162.21C51.0224 163.23 50.1324 164.06 48.8724 164.7C47.6324 165.34 45.9424 165.66 43.8024 165.66H41.3424V174H38.6424V152.58H44.3124ZM44.0724 154.89H41.3424V163.35H43.5024C45.5424 163.35 47.0624 163.02 48.0624 162.36C49.0624 161.7 49.5624 160.58 49.5624 159C49.5624 157.62 49.1224 156.59 48.2424 155.91C47.3624 155.23 45.9724 154.89 44.0724 154.89ZM68.7523 174L66.1723 167.37H57.6823L55.1323 174H52.4023L60.7723 152.49H63.2023L71.5423 174H68.7523ZM62.9623 158.49C62.9023 158.33 62.8023 158.04 62.6623 157.62C62.5223 157.2 62.3823 156.77 62.2423 156.33C62.1223 155.87 62.0223 155.52 61.9423 155.28C61.8023 155.9 61.6423 156.51 61.4623 157.11C61.2823 157.69 61.1323 158.15 61.0123 158.49L58.5823 164.97H65.3623L62.9623 158.49ZM80.2025 162.99L71.8925 152.58H74.8925L83.0825 162.96V152.58H85.6625V162.96L93.8525 152.58H96.8525L88.5425 162.96L97.1225 174H94.0325L85.6625 163.14V174H83.0825V163.14L74.6825 174H71.5925L80.2025 162.99ZM114.508 152.58V171.6H117.238V179.64H114.658V174H99.928V179.64H97.348V171.6H98.998C99.718 170.36 100.398 168.97 101.038 167.43C101.698 165.89 102.278 164.28 102.778 162.6C103.278 160.9 103.688 159.2 104.008 157.5C104.328 155.8 104.528 154.16 104.608 152.58H114.508ZM106.978 155.01C106.898 156.17 106.698 157.48 106.378 158.94C106.078 160.4 105.688 161.9 105.208 163.44C104.748 164.96 104.228 166.43 103.648 167.85C103.088 169.27 102.488 170.52 101.848 171.6H111.838V155.01H106.978ZM134.26 174L131.68 167.37H123.19L120.64 174H117.91L126.28 152.49H128.71L137.05 174H134.26ZM128.47 158.49C128.41 158.33 128.31 158.04 128.17 157.62C128.03 157.2 127.89 156.77 127.75 156.33C127.63 155.87 127.53 155.52 127.45 155.28C127.31 155.9 127.15 156.51 126.97 157.11C126.79 157.69 126.64 158.15 126.52 158.49L124.09 164.97H130.87L128.47 158.49ZM156.36 174H153.66V164.01H142.68V174H139.98V152.58H142.68V161.64H153.66V152.58H156.36V174ZM162.247 152.58H164.767V164.34C164.767 165 164.757 165.74 164.737 166.56C164.717 167.38 164.687 168.13 164.647 168.81C164.627 169.49 164.597 169.99 164.557 170.31H164.677L176.467 152.58H179.467V174H176.947V162.36C176.947 161.62 176.957 160.83 176.977 159.99C177.017 159.15 177.057 158.38 177.097 157.68C177.137 156.98 177.167 156.48 177.187 156.18H177.067L165.247 174H162.247V152.58ZM201.624 174H198.924V164.01H187.944V174H185.244V152.58H187.944V161.64H198.924V152.58H201.624V174ZM226.17 163.26C226.17 165.48 225.79 167.42 225.03 169.08C224.29 170.72 223.19 172 221.73 172.92C220.27 173.84 218.46 174.3 216.3 174.3C214.08 174.3 212.23 173.84 210.75 172.92C209.29 172 208.2 170.71 207.48 169.05C206.76 167.39 206.4 165.45 206.4 163.23C206.4 161.03 206.76 159.11 207.48 157.47C208.2 155.83 209.29 154.55 210.75 153.63C212.23 152.71 214.09 152.25 216.33 152.25C218.47 152.25 220.27 152.71 221.73 153.63C223.19 154.53 224.29 155.81 225.03 157.47C225.79 159.11 226.17 161.04 226.17 163.26ZM209.25 163.26C209.25 165.96 209.82 168.09 210.96 169.65C212.1 171.19 213.88 171.96 216.3 171.96C218.74 171.96 220.52 171.19 221.64 169.65C222.76 168.09 223.32 165.96 223.32 163.26C223.32 160.56 222.76 158.45 221.64 156.93C220.52 155.39 218.75 154.62 216.33 154.62C213.91 154.62 212.12 155.39 210.96 156.93C209.82 158.45 209.25 160.56 209.25 163.26ZM240.368 174L233.318 155.22H233.198C233.258 155.84 233.308 156.68 233.348 157.74C233.388 158.78 233.408 159.87 233.408 161.01V174H230.918V152.58H234.908L241.508 170.13H241.628L248.348 152.58H252.308V174H249.638V160.83C249.638 159.79 249.658 158.76 249.698 157.74C249.758 156.72 249.808 155.89 249.848 155.25H249.728L242.588 174H240.368ZM261.165 154.2H258.375L258.825 167.73H260.745L261.165 154.2ZM259.785 170.55C258.765 170.55 257.895 171.33 257.895 172.44C257.895 173.55 258.765 174.33 259.785 174.33C260.835 174.33 261.675 173.55 261.675 172.44C261.675 171.33 260.835 170.55 259.785 170.55ZM39.29 210H36.59V200.01H25.61V210H22.91V188.58H25.61V197.64H36.59V188.58H39.29V210ZM63.8363 199.26C63.8363 201.48 63.4563 203.42 62.6963 205.08C61.9563 206.72 60.8563 208 59.3963 208.92C57.9363 209.84 56.1263 210.3 53.9663 210.3C51.7463 210.3 49.8963 209.84 48.4163 208.92C46.9563 208 45.8663 206.71 45.1463 205.05C44.4263 203.39 44.0663 201.45 44.0663 199.23C44.0663 197.03 44.4263 195.11 45.1463 193.47C45.8663 191.83 46.9563 190.55 48.4163 189.63C49.8963 188.71 51.7563 188.25 53.9963 188.25C56.1363 188.25 57.9363 188.71 59.3963 189.63C60.8563 190.53 61.9563 191.81 62.6963 193.47C63.4563 195.11 63.8363 197.04 63.8363 199.26ZM46.9163 199.26C46.9163 201.96 47.4863 204.09 48.6263 205.65C49.7663 207.19 51.5463 207.96 53.9663 207.96C56.4063 207.96 58.1863 207.19 59.3063 205.65C60.4263 204.09 60.9863 201.96 60.9863 199.26C60.9863 196.56 60.4263 194.45 59.3063 192.93C58.1863 191.39 56.4163 190.62 53.9963 190.62C51.5763 190.62 49.7863 191.39 48.6263 192.93C47.4863 194.45 46.9163 196.56 46.9163 199.26ZM93.372 210H90.672V200.01H79.692V210H76.992V188.58H79.692V197.64H90.672V188.58H93.372V210ZM111.198 210H99.2284V188.58H111.198V190.95H101.928V197.64H110.658V199.98H101.928V207.63H111.198V210ZM35.57 229.59C35.57 231.05 35.11 232.21 34.19 233.07C33.27 233.91 32.04 234.45 30.5 234.69V234.81C32.3 235.05 33.67 235.61 34.61 236.49C35.55 237.37 36.02 238.52 36.02 239.94C36.02 241.82 35.3 243.35 33.86 244.53C32.42 245.71 30.26 246.3 27.38 246.3C26.22 246.3 25.11 246.21 24.05 246.03C23.01 245.87 22.04 245.57 21.14 245.13V242.67C22.08 243.11 23.1 243.46 24.2 243.72C25.32 243.96 26.37 244.08 27.35 244.08C29.27 244.08 30.72 243.72 31.7 243C32.7 242.28 33.2 241.26 33.2 239.94C33.2 238.58 32.62 237.59 31.46 236.97C30.3 236.35 28.68 236.04 26.6 236.04H23.54V233.79H26.45C28.57 233.79 30.15 233.44 31.19 232.74C32.25 232.02 32.78 231.06 32.78 229.86C32.78 228.78 32.38 227.95 31.58 227.37C30.78 226.79 29.74 226.5 28.46 226.5C27.12 226.5 26 226.67 25.1 227.01C24.22 227.35 23.36 227.79 22.52 228.33L21.23 226.5C22.07 225.88 23.1 225.36 24.32 224.94C25.56 224.5 26.95 224.28 28.49 224.28C30.81 224.28 32.57 224.78 33.77 225.78C34.97 226.78 35.57 228.05 35.57 229.59ZM53.9867 246L51.4067 239.37H42.9167L40.3667 246H37.6367L46.0067 224.49H48.4367L56.7767 246H53.9867ZM48.1967 230.49C48.1367 230.33 48.0367 230.04 47.8967 229.62C47.7567 229.2 47.6167 228.77 47.4767 228.33C47.3567 227.87 47.2567 227.52 47.1767 227.28C47.0367 227.9 46.8767 228.51 46.6967 229.11C46.5167 229.69 46.3667 230.15 46.2467 230.49L43.8167 236.97H50.5967L48.1967 230.49ZM59.7069 246V224.58H72.4269V226.95H62.4069V233.64H65.5869C67.7269 233.64 69.3869 233.91 70.5669 234.45C71.7469 234.97 72.5669 235.69 73.0269 236.61C73.4869 237.51 73.7169 238.55 73.7169 239.73C73.7169 241.69 73.1269 243.23 71.9469 244.35C70.7669 245.45 68.7769 246 65.9769 246H59.7069ZM65.7069 243.69C67.6269 243.69 68.9769 243.37 69.7569 242.73C70.5369 242.07 70.9269 241.07 70.9269 239.73C70.9269 238.35 70.4969 237.38 69.6369 236.82C68.7769 236.26 67.3169 235.98 65.2569 235.98H62.4069V243.69H65.7069ZM78.1639 246V224.58H80.8639V233.64H84.1639C86.1639 233.64 87.7339 233.91 88.8739 234.45C90.0339 234.99 90.8539 235.72 91.3339 236.64C91.8339 237.56 92.0839 238.59 92.0839 239.73C92.0839 241.61 91.4739 243.13 90.2539 244.29C89.0539 245.43 87.1339 246 84.4939 246H78.1639ZM95.3839 246V224.58H98.0839V246H95.3839ZM84.2539 243.72C85.9739 243.72 87.2439 243.39 88.0639 242.73C88.8839 242.07 89.2939 241.07 89.2939 239.73C89.2939 238.35 88.8439 237.39 87.9439 236.85C87.0639 236.29 85.7039 236.01 83.8639 236.01H80.8639V243.72H84.2539ZM110.036 224.58C112.716 224.58 114.736 224.98 116.096 225.78C117.476 226.56 118.166 227.93 118.166 229.89C118.166 231.15 117.816 232.2 117.116 233.04C116.416 233.86 115.406 234.39 114.086 234.63V234.78C114.986 234.92 115.796 235.18 116.516 235.56C117.256 235.94 117.836 236.48 118.256 237.18C118.676 237.88 118.886 238.79 118.886 239.91C118.886 241.85 118.216 243.35 116.876 244.41C115.556 245.47 113.746 246 111.446 246H103.916V224.58H110.036ZM110.576 233.7C112.416 233.7 113.676 233.41 114.356 232.83C115.036 232.23 115.376 231.35 115.376 230.19C115.376 229.01 114.956 228.17 114.116 227.67C113.296 227.15 111.976 226.89 110.156 226.89H106.616V233.7H110.576ZM106.616 235.95V243.72H110.936C112.836 243.72 114.156 243.35 114.896 242.61C115.636 241.87 116.006 240.9 116.006 239.7C116.006 238.58 115.616 237.68 114.836 237C114.076 236.3 112.706 235.95 110.726 235.95H106.616ZM136.868 246L134.288 239.37H125.798L123.248 246H120.518L128.888 224.49H131.318L139.658 246H136.868ZM131.078 230.49C131.018 230.33 130.918 230.04 130.778 229.62C130.638 229.2 130.498 228.77 130.358 228.33C130.238 227.87 130.138 227.52 130.058 227.28C129.918 227.9 129.758 228.51 129.578 229.11C129.398 229.69 129.248 230.15 129.128 230.49L126.698 236.97H133.478L131.078 230.49ZM157.198 217.92C157.058 219.42 156.548 220.56 155.668 221.34C154.808 222.1 153.428 222.48 151.528 222.48C149.568 222.48 148.178 222.1 147.358 221.34C146.558 220.58 146.108 219.44 146.008 217.92H148.468C148.568 219 148.848 219.73 149.308 220.11C149.788 220.47 150.548 220.65 151.588 220.65C152.508 220.65 153.228 220.46 153.748 220.08C154.288 219.68 154.608 218.96 154.708 217.92H157.198ZM142.618 224.58H145.138V236.34C145.138 237 145.128 237.74 145.108 238.56C145.088 239.38 145.058 240.13 145.018 240.81C144.998 241.49 144.968 241.99 144.928 242.31H145.048L156.838 224.58H159.838V246H157.318V234.36C157.318 233.62 157.328 232.83 157.348 231.99C157.388 231.15 157.428 230.38 157.468 229.68C157.508 228.98 157.538 228.48 157.558 228.18H157.438L145.618 246H142.618V224.58ZM166.755 231.24C165.735 231.24 164.865 232.02 164.865 233.13C164.865 234.27 165.735 235.02 166.755 235.02C167.775 235.02 168.645 234.27 168.645 233.13C168.645 232.02 167.775 231.24 166.755 231.24ZM166.755 242.55C165.735 242.55 164.865 243.33 164.865 244.44C164.865 245.55 165.735 246.33 166.755 246.33C167.775 246.33 168.645 245.55 168.645 244.44C168.645 243.33 167.775 242.55 166.755 242.55Z" fill="black"/>
</svg>
