<svg width="153" height="20" viewBox="0 0 153 20" fill="none" xmlns="http://www.w3.org/2000/svg">
<path d="M1.162 5.76H8.638V15H7.154V7.09H2.646V15H1.162V5.76ZM15.2624 15.154C14.3757 15.154 13.5591 14.944 12.8124 14.524C12.0751 14.104 11.4917 13.53 11.0624 12.802C10.6331 12.074 10.4184 11.2667 10.4184 10.38C10.4184 9.49333 10.6331 8.686 11.0624 7.958C11.5011 7.23 12.0891 6.656 12.8264 6.236C13.5637 5.816 14.3757 5.606 15.2624 5.606C16.1397 5.606 16.9517 5.816 17.6984 6.236C18.4451 6.656 19.0331 7.23 19.4624 7.958C19.9011 8.686 20.1204 9.49333 20.1204 10.38C20.1204 11.2667 19.9011 12.074 19.4624 12.802C19.0331 13.53 18.4451 14.104 17.6984 14.524C16.9517 14.944 16.1397 15.154 15.2624 15.154ZM15.2764 13.796C15.9017 13.796 16.4664 13.6513 16.9704 13.362C17.4744 13.0633 17.8711 12.6527 18.1604 12.13C18.4497 11.6073 18.5944 11.0193 18.5944 10.366C18.5944 9.73133 18.4497 9.15267 18.1604 8.63C17.8711 8.10733 17.4744 7.70133 16.9704 7.412C16.4664 7.11333 15.9017 6.964 15.2764 6.964C14.6417 6.964 14.0724 7.11333 13.5684 7.412C13.0644 7.70133 12.6677 8.10733 12.3784 8.63C12.0984 9.14333 11.9584 9.722 11.9584 10.366C11.9584 11.0193 12.0984 11.6073 12.3784 12.13C12.6677 12.6527 13.0644 13.0633 13.5684 13.362C14.0724 13.6513 14.6417 13.796 15.2764 13.796ZM25.0448 5.606C25.9315 5.606 26.7435 5.816 27.4808 6.236C28.2275 6.656 28.8155 7.23 29.2448 7.958C29.6835 8.686 29.9028 9.49333 29.9028 10.38C29.9028 11.2667 29.6835 12.074 29.2448 12.802C28.8155 13.53 28.2275 14.104 27.4808 14.524C26.7435 14.944 25.9315 15.154 25.0448 15.154C24.1861 15.154 23.4068 14.9627 22.7068 14.58C22.0161 14.1973 21.4748 13.6793 21.0828 13.026L22.2028 12.2C22.9028 13.264 23.8455 13.796 25.0308 13.796C25.5908 13.796 26.1041 13.6793 26.5708 13.446C27.0468 13.2033 27.4388 12.8673 27.7468 12.438C28.0548 11.9993 28.2508 11.5047 28.3348 10.954H24.3308V9.666H28.3068C28.1575 8.86333 27.7795 8.21467 27.1728 7.72C26.5755 7.216 25.8615 6.964 25.0308 6.964C23.8455 6.964 22.9028 7.496 22.2028 8.56L21.0828 7.734C21.4935 7.08067 22.0441 6.56267 22.7348 6.18C23.4255 5.79733 24.1955 5.606 25.0448 5.606ZM33.6289 7.09H30.5209V5.76H38.2349V7.09H35.1129V15H33.6289V7.09ZM38.5844 9.932H42.0284V11.178H38.5844V9.932ZM43.8729 5.76H49.5849V7.09H45.3569V15H43.8729V5.76ZM51.078 5.76H54.452C55.068 5.76 55.614 5.88133 56.09 6.124C56.566 6.35733 56.9347 6.68867 57.196 7.118C57.4573 7.54733 57.588 8.03733 57.588 8.588C57.588 9.13867 57.4573 9.62867 57.196 10.058C56.9347 10.4873 56.566 10.8233 56.09 11.066C55.614 11.3087 55.068 11.43 54.452 11.43H52.562V15H51.078V5.76ZM54.424 10.114C54.9467 10.114 55.348 9.97867 55.628 9.708C55.9173 9.428 56.062 9.05933 56.062 8.602C56.062 8.14467 55.9173 7.776 55.628 7.496C55.348 7.216 54.9467 7.076 54.424 7.076H52.562V10.114H54.424ZM63.663 13.46H59.505L58.847 15H57.265L61.339 5.606H61.843L65.917 15H64.321L63.663 13.46ZM61.591 8.364L60.037 12.186H63.131L61.591 8.364ZM68.7046 5.76L72.2886 10.086L68.3686 15H66.5346L70.5386 10.086L66.8706 5.76H68.7046ZM72.3306 5.76H73.8146V15H72.3306V5.76ZM79.6246 15H77.7906L73.8566 10.086L77.4546 5.76H79.2746L75.6206 10.086L79.6246 15ZM89.3058 13.67V16.974H87.8218V15H81.5918V16.974H80.1078V13.67H80.8358C81.2838 13.2687 81.6104 12.5407 81.8158 11.486C82.0304 10.4313 82.1378 8.96133 82.1378 7.076V5.76H88.1298V13.67H89.3058ZM82.4598 13.67H86.6458V7.09H83.5098C83.5004 10.3847 83.1504 12.578 82.4598 13.67ZM96.3935 13.46H92.2355L91.5775 15H89.9955L94.0695 5.606H94.5735L98.6475 15H97.0515L96.3935 13.46ZM94.3215 8.364L92.7675 12.186H95.8615L94.3215 8.364ZM100.119 5.76H101.603V9.442H106.251V5.76H107.735V15H106.251V10.772H101.603V15H100.119V5.76ZM117.8 5.606V15H116.316V8.546L110.59 15.154H110.072V5.76H111.556V12.2L117.282 5.606H117.8ZM120.121 5.76H121.605V9.442H126.253V5.76H127.737V15H126.253V10.772H121.605V15H120.121V5.76Z" fill="black"/>
<path d="M143 6.875C143 6.21196 143.263 5.57607 143.732 5.10723C144.201 4.63839 144.837 4.375 145.5 4.375H150.5C150.666 4.375 150.825 4.44085 150.942 4.55806C151.059 4.67527 151.125 4.83424 151.125 5V15C151.125 15.1658 151.059 15.3247 150.942 15.4419C150.825 15.5592 150.666 15.625 150.5 15.625H145.5C144.837 15.625 144.201 15.8884 143.732 16.3572C143.263 16.8261 143 17.462 143 18.125" stroke="black" stroke-width="2" stroke-linecap="round" stroke-linejoin="round"/>
<path d="M134.875 15C134.875 15.1658 134.941 15.3247 135.058 15.4419C135.175 15.5592 135.334 15.625 135.5 15.625H140.5C141.163 15.625 141.799 15.8884 142.268 16.3572C142.737 16.8261 143 17.462 143 18.125V6.875C143 6.21196 142.737 5.57607 142.268 5.10723C141.799 4.63839 141.163 4.375 140.5 4.375H135.5C135.334 4.375 135.175 4.44085 135.058 4.55806C134.941 4.67527 134.875 4.83424 134.875 5V15Z" stroke="black" stroke-width="2" stroke-linecap="round" stroke-linejoin="round"/>
</svg>
