<svg width="169" height="20" fill="none" xmlns="http://www.w3.org/2000/svg"><path d="M9.968 5.7v9.8H8.596V6.918H2.912V15.5H1.526V5.7h8.442zm7.466 9.912c-.99 0-1.88-.215-2.674-.644a4.915 4.915 0 01-1.876-1.806c-.448-.765-.672-1.62-.672-2.562 0-.943.224-1.797.672-2.562a4.812 4.812 0 011.876-1.792c.793-.439 1.685-.658 2.674-.658.98 0 1.867.22 2.66.658a4.712 4.712 0 011.862 1.792c.448.756.672 1.61.672 2.562 0 .952-.224 1.81-.672 2.576a4.843 4.843 0 01-1.862 1.792c-.793.43-1.68.644-2.66.644zm0-1.246c.719 0 1.363-.163 1.932-.49a3.545 3.545 0 001.358-1.344 3.777 3.777 0 00.504-1.932c0-.71-.168-1.349-.504-1.918a3.516 3.516 0 00-1.358-1.358c-.57-.327-1.213-.49-1.932-.49-.719 0-1.372.163-1.96.49a3.617 3.617 0 00-1.372 1.358 3.785 3.785 0 00-.49 1.918c0 .71.163 1.353.49 1.932.336.57.793 1.017 1.372 1.344.588.327 1.241.49 1.96.49zm9.886-8.778c.933 0 1.773.22 2.52.658a4.65 4.65 0 011.764 1.792c.43.756.644 1.61.644 2.562 0 .952-.215 1.81-.644 2.576a4.78 4.78 0 01-1.764 1.792c-.747.43-1.587.644-2.52.644-.803 0-1.53-.13-2.184-.392a4.202 4.202 0 01-1.638-1.148l.882-.882c.737.775 1.694 1.162 2.87 1.162.625 0 1.195-.135 1.708-.406.513-.28.933-.667 1.26-1.162.326-.495.523-1.06.588-1.694H26.06V9.942h4.732a3.761 3.761 0 00-.63-1.61 3.424 3.424 0 00-1.246-1.092 3.565 3.565 0 00-1.666-.392c-1.167 0-2.123.387-2.87 1.162l-.882-.882a4.203 4.203 0 011.638-1.148 5.903 5.903 0 012.184-.392zm13.794 1.33h-3.36V15.5h-1.372V6.918h-3.346V5.7h8.078v1.218zm.508 4.158h3.766v1.162h-3.766v-1.162zm12.5-4.158h-5.04l.014 8.582H47.71V5.7h6.426l-.014 1.218zM59.625 5.7c1.27 0 2.268.303 2.996.91.728.607 1.092 1.442 1.092 2.506 0 1.064-.364 1.9-1.092 2.506-.728.607-1.726.91-2.996.91h-2.422V15.5h-1.4V5.7h3.822zm-.042 5.614c.887 0 1.564-.187 2.03-.56.467-.383.7-.929.7-1.638 0-.71-.233-1.25-.7-1.624-.466-.383-1.143-.574-2.03-.574h-2.38v4.396h2.38zM71.54 13.05H66.33l-1.078 2.45H63.81l4.438-9.8h1.386l4.452 9.8h-1.47l-1.078-2.45zm-.49-1.12l-2.114-4.802-2.114 4.802h4.228zm12.496-.742h-1.862V15.5h-1.372v-4.312h-1.876L75.691 15.5h-1.638l3.234-5.096L74.291 5.7h1.498l2.618 4.256h1.904V5.7h1.372v4.256h1.876L86.191 5.7h1.498l-2.996 4.732 3.234 5.068H86.29l-2.744-4.312zm15.393 3.094v3.36h-1.302V15.5h-8.064l-.014 2.142h-1.302l.014-3.36h.476c.616-.037 1.05-.523 1.302-1.456.252-.943.406-2.268.462-3.976l.098-3.15h6.888v8.582h1.442zm-7.196-5.306c-.046 1.381-.158 2.525-.336 3.43-.168.905-.443 1.53-.826 1.876h5.53V6.918h-4.298l-.07 2.058zm15.521 4.074h-5.208l-1.078 2.45h-1.442l4.438-9.8h1.386l4.452 9.8h-1.47l-1.078-2.45zm-.49-1.12l-2.114-4.802-2.114 4.802h4.228zm13.158-6.23v9.8h-1.4v-4.368h-5.628V15.5h-1.4V5.7h1.4v4.214h5.628V5.7h1.4zm3.056 0h1.386v7.56l5.796-7.56h1.288v9.8h-1.372V7.954l-5.81 7.546h-1.288V5.7zm19.953 0v9.8h-1.4v-4.368h-5.628V15.5h-1.4V5.7h1.4v4.214h5.628V5.7h1.4z" fill="#fff"/><path d="M159 6.875a2.5 2.5 0 012.5-2.5h5a.624.624 0 01.625.625v10a.626.626 0 01-.625.625h-5a2.501 2.501 0 00-2.5 2.5M150.875 15a.626.626 0 00.625.625h5a2.501 2.501 0 012.5 2.5V6.875a2.5 2.5 0 00-2.5-2.5h-5a.624.624 0 00-.625.625v10z" stroke="#fff" stroke-linecap="round" stroke-linejoin="round"/></svg>